<?xml version="1.0" encoding="UTF-8"?>
<svg id="logo-header" xmlns="http://www.w3.org/2000/svg" version="1.1" viewBox="0 0 595.3 87.8">
  <defs>
    <style>
    @media (prefers-color-scheme: dark) {
      :root {
        --top-bg-color: #3b3e40;
      }
    }
    :root {
      --top-bg-color: #e8eaec;
    }
      .cls-1 {
        fill: var(--top-bg-color);
      }

      .cls-1, .cls-2 {
        stroke-width: 0px;
      }

      .cls-2 {
        fill: #f37021;
      }
    </style>
  </defs>
  <g id="logo">
    <g>
      <path class="cls-2" d="M327.3,51.3h4.6l-2.2-6.2h-.1l-2.3,6.2h0ZM320.7,43.5h-6.9v14.9h-7.6v-14.9h-6.9v-5.1h21.3v5.1h.1ZM296.6,58.4h-7.6v-20h7.6v20h0ZM342.2,58.2l19.6-9.7-64.2-31.9-44,21.8h6.9l3,12.4h.1l3-12.4h6.7l2.9,12.5h.1l3.1-12.5h7.4l-6.9,20h-7.3l-2.6-12.2h-.1l-2.6,12.2h-7.4l-6.6-19.8-19.8,9.8,64.2,31.9,44.1-21.9h-7.3l-1-2.9h-7.8l-1.1,2.9h-7.6l9-20h7.4l8.8,19.8h0Z"/>
      <path class="cls-2" d="M352.8,40.2c.3,0,.4,0,.4-.3s-.1-.3-.4-.3h-.5v.7h.5ZM351.9,39.2h.9c.4,0,.8.2.8.6s-.2.5-.5.6l.5.8h-.5l-.5-.7h-.4v.7h-.4v-2s.1,0,.1,0ZM354.2,40.3h0c0-.9-.7-1.6-1.6-1.6s-1.6.7-1.6,1.6h0c0,.9.7,1.6,1.6,1.6s1.6-.8,1.6-1.6h0ZM350.7,40.3h0c0-1.1.9-2,1.9-2s1.9.9,1.9,2h0c0,1.1-.9,2-1.9,2s-1.9-.9-1.9-2h0Z"/>
    </g>
  </g>
  <polygon id="top" class="cls-1" points="218.3 48.4 297.6 9.2 377 48.4 595.3 48.4 595.3 0 0 0 0 48.4 218.3 48.4"/>
</svg>
