<?xml version="1.0" encoding="utf-8"?>
<!-- Generator: Adobe Illustrator 28.5.0, SVG Export Plug-In . SVG Version: 9.03 Build 54727)  -->
<svg version="1.1" xmlns="http://www.w3.org/2000/svg" xmlns:xlink="http://www.w3.org/1999/xlink" x="0px" y="0px"
	 viewBox="0 0 595.3 116.3" style="enable-background:new 0 0 595.3 116.3;" xml:space="preserve">
<style type="text/css">
	.st0{fill:#E8EAEC;}
	.st1{fill:#FFFFFF;}
	.st2{fill:#F37021;}
	.st3{fill:#595F62;}
</style>
<g id="Ebene_1">
	<rect x="0" class="st0" width="595.3" height="77"/>
</g>
<g id="Layer_2">
	<g>
		<polygon class="st1" points="297.6,37.6 377,76.9 297.6,116.3 218.3,76.9 		"/>
		<path class="st2" d="M327.3,79.8h4.6l-2.2-6.2h-0.1L327.3,79.8L327.3,79.8z M320.7,72h-6.9v14.9h-7.6V72h-6.9v-5.1h21.3V72
			L320.7,72z M296.6,86.9h-7.6v-20h7.6V86.9L296.6,86.9z M342.2,86.7l19.6-9.7l-64.2-31.9l-44,21.8h6.9l3,12.4h0.1l3-12.4h6.7
			l2.9,12.5h0.1l3.1-12.5h7.4l-6.9,20h-7.3l-2.6-12.2h-0.1l-2.6,12.2h-7.4l-6.6-19.8l-19.8,9.8l64.2,31.9l44.1-21.9l-7.3,0l-1-2.9
			h-7.8l-1.1,2.9H317l9-20h7.4L342.2,86.7L342.2,86.7z"/>
		<path class="st1" d="M327.3,79.8l2.4-6.2h0.1l2.2,6.2H327.3L327.3,79.8z M333.4,66.9H326l-9,20h7.6l1.1-2.9h7.8l1,2.9l7.3,0
			l0.5-0.2L333.4,66.9L333.4,66.9z M289.1,86.9h7.6v-20h-7.6V86.9L289.1,86.9z M320.7,66.9h-21.3V72h6.9v14.9h7.6V72h6.9V66.9
			L320.7,66.9z M276.2,79.4L276.2,79.4l-3-12.5h-6.7l-3,12.4h-0.1l-3-12.4h-6.9l-0.4,0.2l6.6,19.8h7.4l2.6-12.2h0.1l2.6,12.2h7.3
			l6.9-20h-7.4L276.2,79.4L276.2,79.4z"/>
		<path class="st2" d="M352.8,68.7c0.3,0,0.4-0.1,0.4-0.3c0-0.2-0.1-0.3-0.4-0.3h-0.5v0.7H352.8L352.8,68.7z M351.9,67.7h0.9
			c0.4,0,0.8,0.2,0.8,0.6c0,0.3-0.2,0.5-0.5,0.6l0.5,0.8h-0.5l-0.5-0.7h-0.4v0.7h-0.4V67.7L351.9,67.7z M354.2,68.7L354.2,68.7
			c0-0.9-0.7-1.6-1.6-1.6c-0.9,0-1.6,0.7-1.6,1.6v0c0,0.9,0.7,1.6,1.6,1.6C353.5,70.4,354.2,69.6,354.2,68.7L354.2,68.7z
			 M350.7,68.8L350.7,68.8c0-1.1,0.9-2,1.9-2c1.1,0,1.9,0.9,1.9,2v0c0,1.1-0.9,2-1.9,2C351.6,70.7,350.7,69.8,350.7,68.8L350.7,68.8
			z"/>
	</g>
</g>
<g id="slogan">
	<g>
		<path class="st3" d="M231.1,23.9h-0.6l-3.9-5.8v5.8H226v-6.8h0.6l3.9,5.8v-5.8h0.6V23.9z"/>
		<path class="st3" d="M237.5,17.2v4.6c0,0.5-0.1,0.9-0.3,1.2s-0.5,0.6-0.8,0.8c-0.4,0.2-0.8,0.3-1.2,0.3c-0.7,0-1.3-0.2-1.7-0.6
			s-0.6-0.9-0.7-1.6v-4.7h0.6v4.6c0,0.6,0.2,1,0.5,1.3c0.3,0.3,0.8,0.5,1.3,0.5s1-0.2,1.3-0.5c0.3-0.3,0.5-0.8,0.5-1.3v-4.6H237.5z"
			/>
		<path class="st3" d="M241.7,21.1h-2v2.8h-0.6v-6.8h2.2c0.7,0,1.3,0.2,1.7,0.5s0.6,0.8,0.6,1.5c0,0.4-0.1,0.8-0.4,1.1
			c-0.3,0.3-0.6,0.6-1,0.7l1.7,2.9v0.1h-0.6L241.7,21.1z M239.7,20.6h1.7c0.5,0,0.9-0.1,1.2-0.4c0.3-0.3,0.4-0.6,0.4-1.1
			c0-0.5-0.2-0.8-0.5-1.1c-0.3-0.3-0.7-0.4-1.3-0.4h-1.6V20.6z"/>
		<path class="st3" d="M252.7,20.9c0,0.6-0.1,1.2-0.3,1.6c-0.2,0.5-0.5,0.8-0.9,1.1S250.6,24,250,24c-0.8,0-1.4-0.3-1.9-0.8
			c-0.5-0.6-0.7-1.3-0.7-2.3v-0.7c0-0.6,0.1-1.2,0.3-1.6c0.2-0.5,0.5-0.8,0.9-1.1c0.4-0.3,0.9-0.4,1.4-0.4s1,0.1,1.4,0.4
			c0.4,0.2,0.7,0.6,0.9,1.1c0.2,0.5,0.3,1,0.3,1.6V20.9z M252.1,20.2c0-0.8-0.2-1.5-0.6-1.9c-0.4-0.5-0.9-0.7-1.5-0.7
			c-0.6,0-1.1,0.2-1.5,0.7c-0.4,0.5-0.6,1.1-0.6,1.9v0.7c0,0.8,0.2,1.4,0.6,1.9c0.4,0.5,0.9,0.7,1.5,0.7c0.6,0,1.2-0.2,1.5-0.7
			c0.4-0.5,0.5-1.1,0.5-1.9V20.2z"/>
		<path class="st3" d="M256.7,21.1h-2v2.8h-0.6v-6.8h2.2c0.7,0,1.3,0.2,1.7,0.5s0.6,0.8,0.6,1.5c0,0.4-0.1,0.8-0.4,1.1
			c-0.3,0.3-0.6,0.6-1,0.7l1.7,2.9v0.1h-0.6L256.7,21.1z M254.7,20.6h1.7c0.5,0,0.9-0.1,1.2-0.4c0.3-0.3,0.4-0.6,0.4-1.1
			c0-0.5-0.2-0.8-0.5-1.1c-0.3-0.3-0.7-0.4-1.3-0.4h-1.6V20.6z"/>
		<path class="st3" d="M261,23.9h-0.6v-6.8h0.6V23.9z"/>
		<path class="st3" d="M267.8,23.1c-0.2,0.3-0.5,0.5-0.9,0.7c-0.4,0.2-0.9,0.2-1.4,0.2c-0.5,0-1-0.1-1.4-0.4c-0.4-0.3-0.7-0.6-1-1.1
			c-0.2-0.5-0.3-1-0.3-1.6v-0.9c0-0.9,0.2-1.7,0.7-2.2c0.5-0.5,1.1-0.8,1.9-0.8c0.7,0,1.3,0.2,1.7,0.5c0.4,0.4,0.7,0.8,0.8,1.5h-0.6
			c-0.1-0.5-0.3-0.9-0.6-1.1c-0.3-0.3-0.7-0.4-1.3-0.4c-0.6,0-1.1,0.2-1.5,0.7c-0.4,0.4-0.6,1.1-0.6,1.9V21c0,0.5,0.1,1,0.3,1.4
			c0.2,0.4,0.4,0.7,0.8,0.9c0.3,0.2,0.7,0.3,1.1,0.3c0.5,0,0.9-0.1,1.3-0.2c0.2-0.1,0.4-0.2,0.5-0.4v-1.7h-1.8v-0.5h2.4V23.1z"/>
		<path class="st3" d="M270.2,23.9h-0.6v-6.8h0.6V23.9z"/>
		<path class="st3" d="M277.1,23.9h-0.6l-3.9-5.8v5.8h-0.6v-6.8h0.6l3.9,5.8v-5.8h0.6V23.9z"/>
		<path class="st3" d="M282.6,22h-3.1l-0.7,1.9h-0.6l2.6-6.8h0.5l2.6,6.8h-0.6L282.6,22z M279.7,21.6h2.7l-1.4-3.7L279.7,21.6z"/>
		<path class="st3" d="M285.6,23.5h3.3v0.5H285v-6.8h0.6V23.5z"/>
		<path class="st3" d="M293.2,17.2l2.5,6l2.5-6h0.8v6.8h-0.6V21l0-3l-2.5,6h-0.4L293,18l0,3v3h-0.6v-6.8H293.2z"/>
		<path class="st3" d="M301.4,23.9h-0.6v-6.8h0.6V23.9z"/>
		<path class="st3" d="M307.8,17.7h-2.3v6.3h-0.6v-6.3h-2.3v-0.5h5.2V17.7z"/>
		<path class="st3" d="M311.2,23.9v-6.8h1.9c0.6,0,1,0.1,1.5,0.4c0.4,0.3,0.8,0.6,1,1.1c0.2,0.5,0.4,1,0.4,1.6v0.6
			c0,0.6-0.1,1.1-0.4,1.6c-0.2,0.5-0.6,0.8-1,1.1c-0.4,0.3-1,0.4-1.5,0.4H311.2z M311.7,17.7v5.8h1.3c0.7,0,1.3-0.2,1.7-0.7
			s0.6-1.1,0.6-1.9v-0.6c0-0.8-0.2-1.4-0.6-1.9s-1-0.7-1.7-0.7H311.7z"/>
		<path class="st3" d="M321.2,20.7H318v2.8h3.6v0.5h-4.2v-6.8h4.2v0.5H318v2.6h3.2V20.7z"/>
		<path class="st3" d="M325.5,21.1h-2v2.8h-0.6v-6.8h2.2c0.7,0,1.3,0.2,1.7,0.5c0.4,0.3,0.6,0.8,0.6,1.5c0,0.4-0.1,0.8-0.4,1.1
			c-0.3,0.3-0.6,0.6-1,0.7l1.7,2.9v0.1h-0.6L325.5,21.1z M323.5,20.6h1.7c0.5,0,0.9-0.1,1.2-0.4c0.3-0.3,0.4-0.6,0.4-1.1
			c0-0.5-0.2-0.8-0.5-1.1c-0.3-0.3-0.7-0.4-1.3-0.4h-1.6V20.6z"/>
		<path class="st3" d="M334,21.1h-2v2.8h-0.6v-6.8h2.2c0.7,0,1.3,0.2,1.7,0.5c0.4,0.3,0.6,0.8,0.6,1.5c0,0.4-0.1,0.8-0.4,1.1
			c-0.3,0.3-0.6,0.6-1,0.7l1.7,2.9v0.1h-0.6L334,21.1z M332,20.6h1.7c0.5,0,0.9-0.1,1.2-0.4c0.3-0.3,0.4-0.6,0.4-1.1
			c0-0.5-0.2-0.8-0.5-1.1c-0.3-0.3-0.7-0.4-1.3-0.4H332V20.6z"/>
		<path class="st3" d="M341.2,22h-3.1l-0.7,1.9h-0.6l2.6-6.8h0.5l2.6,6.8h-0.6L341.2,22z M338.3,21.6h2.7l-1.4-3.7L338.3,21.6z"/>
		<path class="st3" d="M348.1,17.2v4.6c0,0.5-0.1,0.9-0.3,1.2c-0.2,0.3-0.5,0.6-0.8,0.8c-0.4,0.2-0.8,0.3-1.2,0.3
			c-0.7,0-1.3-0.2-1.7-0.6s-0.7-0.9-0.7-1.6v-4.7h0.6v4.6c0,0.6,0.2,1,0.5,1.3c0.3,0.3,0.8,0.5,1.3,0.5s1-0.2,1.3-0.5
			s0.5-0.8,0.5-1.3v-4.6H348.1z"/>
		<path class="st3" d="M354.4,17.7h-2.3v6.3h-0.6v-6.3h-2.3v-0.5h5.2V17.7z"/>
		<path class="st3" d="M359.3,20.7h-3.2v2.8h3.6v0.5h-4.2v-6.8h4.2v0.5h-3.6v2.6h3.2V20.7z"/>
		<path class="st3" d="M363,20.6c0-0.6,0.1-1.2,0.4-1.7c0.3-0.5,0.7-1,1.2-1.3c0.5-0.3,1.1-0.5,1.7-0.5s1.1,0.2,1.7,0.5
			c0.5,0.3,0.9,0.7,1.2,1.3s0.4,1.1,0.4,1.7c0,0.6-0.1,1.2-0.4,1.7s-0.7,1-1.2,1.3c-0.5,0.3-1.1,0.5-1.7,0.5s-1.2-0.2-1.7-0.5
			c-0.5-0.3-0.9-0.7-1.2-1.3S363,21.2,363,20.6z M363.4,20.6c0,0.6,0.1,1.1,0.4,1.5c0.3,0.5,0.6,0.9,1.1,1.1
			c0.4,0.3,0.9,0.4,1.4,0.4s1-0.1,1.5-0.4c0.5-0.3,0.8-0.6,1.1-1.1s0.4-1,0.4-1.5c0-0.5-0.1-1.1-0.4-1.5c-0.2-0.5-0.6-0.8-1.1-1.1
			c-0.4-0.3-0.9-0.4-1.5-0.4c-0.5,0-1,0.1-1.5,0.4c-0.5,0.3-0.8,0.6-1.1,1.1C363.5,19.5,363.4,20,363.4,20.6z M365.6,20.9v1.6h-0.5
			v-3.9h1.2c0.5,0,0.8,0.1,1,0.3s0.4,0.5,0.4,0.9c0,0.4-0.2,0.7-0.7,0.9c0.2,0.1,0.4,0.2,0.5,0.4c0.1,0.2,0.1,0.4,0.1,0.6
			s0,0.4,0,0.5c0,0.1,0,0.2,0.1,0.3v0.1h-0.5c0-0.1-0.1-0.4-0.1-0.8c0-0.3-0.1-0.5-0.2-0.6s-0.3-0.2-0.6-0.2H365.6z M365.6,20.4h0.8
			c0.3,0,0.5-0.1,0.6-0.2c0.2-0.1,0.2-0.3,0.2-0.5c0-0.3-0.1-0.5-0.2-0.6s-0.4-0.2-0.7-0.2h-0.8V20.4z"/>
	</g>
	<g>
	</g>
	<g>
	</g>
	<g>
	</g>
	<g>
	</g>
	<g>
	</g>
	<g>
	</g>
</g>
</svg>
