<?xml version="1.0" encoding="utf-8"?>
<!-- Generator: Adobe Illustrator 28.5.0, SVG Export Plug-In . SVG Version: 9.03 Build 54727)  -->
<svg version="1.1" xmlns="http://www.w3.org/2000/svg" xmlns:xlink="http://www.w3.org/1999/xlink" x="0px" y="0px"
	 viewBox="0 0 595.3 87.8" style="enable-background:new 0 0 595.3 87.8;" xml:space="preserve">
<style type="text/css">
	.st0{fill:#FFFFFF;}
	.st1{fill:#E8EAEC;}
	.st2{fill:#F37021;}
</style>
<g id="Layer_4">
	<rect x="0" class="st0" width="595.3" height="87.8"/>
</g>
<g id="Ebene_1">
	<rect x="0" class="st1" width="595.3" height="48.2"/>
</g>
<g id="Layer_2">
	<g>
		<polygon class="st0" points="297.6,9.2 377,48.4 297.6,87.8 218.3,48.4 		"/>
		<path class="st2" d="M327.3,51.3h4.6l-2.2-6.2h-0.1L327.3,51.3L327.3,51.3z M320.7,43.5h-6.9v14.9h-7.6V43.5h-6.9v-5.1h21.3V43.5
			L320.7,43.5z M296.6,58.4h-7.6v-20h7.6V58.4L296.6,58.4z M342.2,58.2l19.6-9.7l-64.2-31.9l-44,21.8h6.9l3,12.4h0.1l3-12.4h6.7
			l2.9,12.5h0.1l3.1-12.5h7.4l-6.9,20h-7.3l-2.6-12.2h-0.1l-2.6,12.2h-7.4l-6.6-19.8l-19.8,9.8l64.2,31.9l44.1-21.9l-7.3,0l-1-2.9
			h-7.8l-1.1,2.9H317l9-20h7.4L342.2,58.2L342.2,58.2z"/>
		<path class="st0" d="M327.3,51.3l2.4-6.2h0.1l2.2,6.2H327.3L327.3,51.3z M333.4,38.4H326l-9,20h7.6l1.1-2.9h7.8l1,2.9l7.3,0
			l0.5-0.2L333.4,38.4L333.4,38.4z M289.1,58.4h7.6v-20h-7.6V58.4L289.1,58.4z M320.7,38.4h-21.3v5.1h6.9v14.9h7.6V43.5h6.9V38.4
			L320.7,38.4z M276.2,50.9L276.2,50.9l-3-12.5h-6.7l-3,12.4h-0.1l-3-12.4h-6.9l-0.4,0.2l6.6,19.8h7.4l2.6-12.2h0.1l2.6,12.2h7.3
			l6.9-20h-7.4L276.2,50.9L276.2,50.9z"/>
		<path class="st2" d="M352.8,40.2c0.3,0,0.4-0.1,0.4-0.3c0-0.2-0.1-0.3-0.4-0.3h-0.5v0.7H352.8L352.8,40.2z M351.9,39.2h0.9
			c0.4,0,0.8,0.2,0.8,0.6c0,0.3-0.2,0.5-0.5,0.6l0.5,0.8h-0.5l-0.5-0.7h-0.4v0.7h-0.4V39.2L351.9,39.2z M354.2,40.3L354.2,40.3
			c0-0.9-0.7-1.6-1.6-1.6c-0.9,0-1.6,0.7-1.6,1.6v0c0,0.9,0.7,1.6,1.6,1.6C353.5,41.9,354.2,41.1,354.2,40.3L354.2,40.3z
			 M350.7,40.3L350.7,40.3c0-1.1,0.9-2,1.9-2c1.1,0,1.9,0.9,1.9,2v0c0,1.1-0.9,2-1.9,2C351.6,42.3,350.7,41.4,350.7,40.3L350.7,40.3
			z"/>
	</g>
</g>
<g id="slogan">
	<g>
	</g>
	<g>
	</g>
	<g>
	</g>
	<g>
	</g>
	<g>
	</g>
	<g>
	</g>
</g>
</svg>
