<?xml version="1.0" encoding="utf-8"?>
<!-- Generator: Adobe Illustrator 28.4.1, SVG Export Plug-In . SVG Version: 6.00 Build 0)  -->
<svg version="1.1" id="logo-header" xmlns="http://www.w3.org/2000/svg" xmlns:xlink="http://www.w3.org/1999/xlink" x="0px"
	 y="0px" viewBox="0 0 595.3 87.8" style="enable-background:new 0 0 595.3 87.8;" xml:space="preserve">
<style type="text/css">
	.st0{fill:#F37021;}
	.st1{fill:#E8EAEC;}
	.st2{fill:none;}
</style>
<g id="logo">
	<g>
		<path class="st0" d="M327.3,51.3h4.6l-2.2-6.2h-0.1L327.3,51.3L327.3,51.3z M320.7,43.5h-6.9v14.9h-7.6V43.5h-6.9v-5.1h21.3v5.1
			H320.7z M296.6,58.4H289v-20h7.6V58.4L296.6,58.4z M342.2,58.2l19.6-9.7l-64.2-31.9l-44,21.8h6.9l3,12.4h0.1l3-12.4h6.7l2.9,12.5
			h0.1l3.1-12.5h7.4l-6.9,20h-7.3L270,46.2h-0.1l-2.6,12.2h-7.4l-6.6-19.8l-19.8,9.8l64.2,31.9l44.1-21.9h-7.3l-1-2.9h-7.8l-1.1,2.9
			H317l9-20h7.4L342.2,58.2L342.2,58.2L342.2,58.2z"/>
		<path class="st0" d="M352.8,40.2c0.3,0,0.4,0,0.4-0.3s-0.1-0.3-0.4-0.3h-0.5v0.7h0.5V40.2z M351.9,39.2h0.9c0.4,0,0.8,0.2,0.8,0.6
			s-0.2,0.5-0.5,0.6l0.5,0.8h-0.5l-0.5-0.7h-0.4v0.7h-0.4v-2C351.8,39.2,351.9,39.2,351.9,39.2z M354.2,40.3L354.2,40.3
			c0-0.9-0.7-1.6-1.6-1.6s-1.6,0.7-1.6,1.6l0,0c0,0.9,0.7,1.6,1.6,1.6S354.2,41.1,354.2,40.3L354.2,40.3z M350.7,40.3L350.7,40.3
			c0-1.1,0.9-2,1.9-2s1.9,0.9,1.9,2l0,0c0,1.1-0.9,2-1.9,2S350.7,41.4,350.7,40.3L350.7,40.3z"/>
	</g>
</g>
<polygon id="top" class="st1" points="218.3,48.4 297.6,9.2 377,48.4 595.3,48.4 595.3,0 0,0 0,48.4 "/>
<polygon id="bottom" class="st2" points="218.3,48.4 297.6,87.8 377,48.4 595.3,48.4 595.3,87.8 0,87.8 0,48.4 "/>
</svg>
