<?xml version="1.0" encoding="UTF-8"?>
<svg id="logo-header" xmlns="http://www.w3.org/2000/svg" version="1.1" viewBox="0 0 595.3 87.8">
  <defs>
    <style>
     :root {
      --top-bg-color: #e8eaec;
      --bottom-bg-color: #fff;
    }
    @media (prefers-color-scheme: dark) {
      :root {
        --top-bg-color: #3b3e40;
        --bottom-bg-color: #262626;
      }
    }
      .cls-1 {
        fill: var(--top-bg-color);
      }

      .cls-1, .cls-2, .cls-3 {
        stroke-width: 0px;
      }

      .cls-2 {
        fill: #f37021;
      }

      .cls-3 {
        fill: var(--bottom-bg-color);
      }
    </style>
  </defs>
  <g id="bottom-bg">
    <rect class="cls-3" width="595.3" height="87.8"/>
  </g>
  <g id="top-bg">
    <rect class="cls-1" width="595.3" height="48.2"/>
  </g>
  <g id="logo">
    <g>
      <polygon class="cls-3" points="297.6 9.2 377 48.4 297.6 87.8 218.3 48.4 297.6 9.2"/>
      <path class="cls-2" d="M327.3,51.3h4.6l-2.2-6.2h-.1l-2.3,6.2h0ZM320.7,43.5h-6.9v14.9h-7.6v-14.9h-6.9v-5.1h21.3v5.1h.1ZM296.6,58.4h-7.6v-20h7.6v20h0ZM342.2,58.2l19.6-9.7-64.2-31.9-44,21.8h6.9l3,12.4h.1l3-12.4h6.7l2.9,12.5h.1l3.1-12.5h7.4l-6.9,20h-7.3l-2.6-12.2h-.1l-2.6,12.2h-7.4l-6.6-19.8-19.8,9.8,64.2,31.9,44.1-21.9h-7.3l-1-2.9h-7.8l-1.1,2.9h-7.6l9-20h7.4l8.8,19.8h0Z"/>
      <path class="cls-3" d="M327.3,51.3l2.4-6.2h.1l2.2,6.2h-4.7ZM333.4,38.4h-7.4l-9,20h7.6l1.1-2.9h7.8l1,2.9h7.3l.5-.2-8.9-19.8h0ZM289.1,58.4h7.6v-20h-7.6v20h0ZM320.7,38.4h-21.3v5.1h6.9v14.9h7.6v-14.9h6.9v-5.1h-.1ZM276.2,50.9h0l-3-12.5h-6.7l-3,12.4h-.1l-3-12.4h-6.9l-.4.2,6.6,19.8h7.4l2.6-12.2h.1l2.6,12.2h7.3l6.9-20h-7.4l-3,12.5h0Z"/>
      <path class="cls-2" d="M352.8,40.2c.3,0,.4,0,.4-.3s-.1-.3-.4-.3h-.5v.7h.5ZM351.9,39.2h.9c.4,0,.8.2.8.6s-.2.5-.5.6l.5.8h-.5l-.5-.7h-.4v.7h-.4v-2h.1ZM354.2,40.3h0c0-.9-.7-1.6-1.6-1.6s-1.6.7-1.6,1.6h0c0,.9.7,1.6,1.6,1.6.9,0,1.6-.8,1.6-1.6h0ZM350.7,40.3h0c0-1.1.9-2,1.9-2s1.9.9,1.9,2h0c0,1.1-.9,2-1.9,2s-1.9-.9-1.9-2h0Z"/>
    </g>
  </g>
</svg>